<svg version="1.1" id="Layer_1" xmlns="http://www.w3.org/2000/svg" xmlns:xlink="http://www.w3.org/1999/xlink" x="0px" y="0px"
	 width="100%" viewBox="0 0 435 139" enable-background="new 0 0 435 139" xml:space="preserve">
<path fill="#000000" opacity="1.000000" stroke="none" 
	d="
M1.000000,87.000000 
	C1.000000,58.360977 1.000000,29.721956 1.000000,1.000000 
	C123.354218,1.000000 245.708450,1.000000 368.844177,1.283187 
	C369.423950,1.828571 369.271027,2.159295 369.013275,2.342911 
	C363.241791,6.454358 362.315063,13.557447 366.810089,19.283981 
	C370.622009,24.140312 377.257996,23.778004 382.525848,19.837742 
	C387.420410,16.176687 387.128265,9.009948 382.418976,3.864483 
	C381.727844,3.109305 381.462402,1.964520 381.000000,1.000000 
	C399.253540,1.000000 417.507111,1.000000 436.000000,1.000000 
	C436.000000,16.020048 436.000000,31.041365 435.724854,46.858673 
	C429.525482,42.726982 423.003571,42.561577 419.792908,48.097542 
	C418.368683,50.553169 418.844513,54.520367 419.425415,57.620106 
	C420.074127,61.081837 422.878662,62.811501 426.500610,61.950569 
	C429.719025,61.185558 432.837433,59.999950 436.000000,58.999996 
	C436.000000,85.907387 436.000000,112.814781 436.000000,140.000000 
	C420.646881,140.000000 405.292114,140.000000 389.191986,139.675110 
	C388.748840,138.958511 389.033234,138.551422 389.356018,138.177444 
	C392.356659,134.700623 391.662598,130.921936 389.155273,127.925758 
	C386.803864,125.115898 383.292206,125.333733 380.245087,127.385246 
	C376.475922,129.922897 376.051331,133.318893 378.046234,137.233322 
	C378.484863,138.094040 378.688263,139.074615 379.000000,140.000000 
	C252.999985,140.000000 126.999985,140.000000 1.000000,140.000000 
	C1.000000,127.911957 1.000000,115.924637 1.352101,103.363579 
	C2.463223,103.831116 3.294341,104.827812 3.969978,105.920639 
	C9.923207,115.549820 25.188091,118.344688 33.501751,111.026573 
	C34.851707,109.838280 34.882153,107.150970 35.522507,105.156540 
	C33.509499,104.709572 31.482246,103.865143 29.487814,103.936615 
	C27.774832,103.998001 26.142168,105.272141 24.399546,105.720955 
	C18.298988,107.292130 13.013396,104.025291 12.077102,97.999893 
	C15.597154,97.999893 19.082516,98.000542 22.567879,97.999702 
	C26.228319,97.998825 29.893373,97.882141 33.547798,98.029579 
	C36.701077,98.156799 37.973282,96.978455 38.058926,93.705872 
	C38.266697,85.766518 34.473602,79.239433 26.938362,76.032784 
	C22.049000,73.952103 12.092138,73.898758 7.330598,80.103973 
	C5.438375,82.569908 3.122823,84.711014 1.000000,87.000000 
M199.723541,111.730507 
	C199.723541,111.730507 200.086166,112.069359 200.024200,112.838501 
	C200.326035,116.700577 197.647324,118.615738 194.665619,118.761543 
	C190.742691,118.953392 186.769135,117.650291 182.798065,117.500053 
	C180.607849,117.417183 177.038040,117.733383 176.431015,118.995506 
	C174.932297,122.111656 176.273270,125.132133 179.958817,126.445778 
	C180.423279,126.611320 180.881317,126.881897 181.356308,126.917480 
	C186.287994,127.287079 191.258728,128.160782 196.147949,127.834801 
	C203.694839,127.331604 209.841949,120.398308 209.954681,112.775688 
	C210.114639,101.959335 210.150833,91.134392 209.840240,80.324593 
	C209.789124,78.545319 207.992142,75.790131 206.462112,75.346008 
	C204.657166,74.822090 202.264999,76.321236 200.127426,76.943268 
	C194.325989,74.937836 189.024445,74.323532 183.889465,75.509888 
	C176.307266,77.261627 169.192139,88.207413 171.799957,99.510544 
	C175.050415,113.599091 187.610611,119.340210 199.723541,111.730507 
M396.391754,114.050865 
	C396.731659,113.121361 396.898865,112.074783 397.437592,111.280037 
	C404.604279,100.707832 406.544006,89.137276 403.947113,76.767334 
	C401.194855,63.657478 394.408386,53.309875 382.268555,47.138367 
	C370.724365,41.269684 358.644348,41.662926 346.569153,45.297642 
	C342.576538,46.499447 338.797546,48.410976 335.184479,49.312973 
	C335.735748,48.708248 336.439789,48.185062 336.813141,47.485397 
	C339.025024,43.340107 338.486420,38.913620 334.781647,36.682175 
	C332.244690,35.154118 327.674927,35.050678 324.912384,36.298897 
	C320.633606,38.232201 321.456757,43.077000 322.453217,46.804867 
	C323.618500,51.164417 327.592651,51.246429 331.299103,50.949482 
	C332.551849,50.849121 333.766815,50.276634 335.278870,50.608784 
	C316.134216,66.162247 313.621887,88.784294 323.102661,106.951324 
	C337.148041,133.864914 374.085785,135.582642 392.151001,117.428642 
	C393.386383,116.187210 395.302032,115.622719 396.277710,115.344505 
	C395.622803,117.020470 394.208008,118.825294 394.465973,120.346458 
	C395.063446,123.870003 395.570831,128.072220 397.770660,130.496902 
	C400.682098,133.705902 405.303772,133.964798 409.670868,132.138596 
	C413.465454,130.551788 415.787292,128.254257 416.090851,123.784645 
	C416.461182,118.332085 414.453247,114.341736 409.765991,112.008224 
	C404.895355,109.583397 400.593262,111.500931 396.391754,114.050865 
M49.225056,113.838852 
	C50.149544,112.155952 51.724236,110.531868 51.882725,108.779671 
	C52.477776,102.201065 52.350906,95.554611 53.009445,88.985199 
	C53.437683,84.713226 57.146702,83.554642 60.720844,83.612175 
	C64.043503,83.665657 66.116623,85.665077 66.213913,89.370850 
	C66.378769,95.650818 66.749084,101.925148 66.990875,108.203468 
	C67.098076,110.987190 66.362839,114.116051 70.937607,114.031174 
	C75.321571,113.949844 76.107269,111.406372 76.026756,107.775482 
	C75.915985,102.779686 75.948845,97.778877 76.015205,92.781479 
	C76.092621,86.951996 79.011887,83.915001 84.305107,84.007744 
	C89.086464,84.091515 89.981148,85.381386 89.999748,92.263542 
	C90.014603,97.761551 89.867592,103.265404 90.082306,108.755333 
	C90.200821,111.785805 91.364586,114.207657 95.216370,114.025078 
	C98.903198,113.850342 100.054626,111.856911 100.017159,108.501389 
	C99.944603,102.004448 100.192139,95.498726 99.948685,89.010078 
	C99.541824,78.166481 94.556152,73.586708 84.230927,75.196007 
	C80.735413,75.740822 77.558205,78.327858 74.131981,80.033165 
	C69.586189,74.264015 62.111320,72.788773 55.647198,76.972191 
	C53.730957,78.212318 52.679947,78.518860 50.806870,76.690979 
	C49.750595,75.660194 46.944523,75.339172 45.582500,76.016739 
	C44.280636,76.664391 43.153854,79.003365 43.114075,80.627441 
	C42.885677,89.951927 43.047504,99.285210 42.982590,108.614845 
	C42.956474,112.368752 44.559040,114.233307 49.225056,113.838852 
M226.336456,75.305832 
	C214.006805,79.790298 211.317932,89.558624 213.316208,99.955711 
	C216.455734,116.290680 235.141525,118.438248 244.997513,111.133324 
	C246.410370,110.086151 246.148712,106.779694 246.662003,104.518829 
	C244.730576,104.212860 242.790573,103.637527 240.870850,103.698715 
	C239.657104,103.737404 238.498779,104.789032 237.272354,105.277885 
	C230.904678,107.816078 225.511795,105.198814 223.294205,97.999771 
	C229.887894,97.999771 236.304688,98.009819 242.721451,97.997070 
	C249.732635,97.983139 251.415009,95.581047 249.284225,88.665459 
	C246.454651,79.481911 238.758987,74.759796 226.336456,75.305832 
M134.429947,78.964417 
	C127.333313,72.665291 115.315536,74.375145 110.923141,79.445580 
	C104.420174,86.952393 101.919044,94.818977 105.936058,104.423790 
	C110.530449,115.409111 129.756027,118.932884 137.470139,109.877625 
	C138.286285,108.919579 138.648865,106.634064 138.063889,105.659416 
	C137.316559,104.414261 135.386017,103.189888 133.976608,103.202576 
	C132.133591,103.219162 130.289398,104.424988 128.466949,105.171104 
	C122.240906,107.720055 115.516747,104.363220 114.700470,97.995232 
	C121.711922,97.995232 128.688019,97.938766 135.662567,98.017761 
	C139.458176,98.060745 141.854294,96.113991 140.830917,92.611794 
	C139.497696,88.049187 136.977066,83.833557 134.429947,78.964417 
M254.001480,87.574875 
	C254.007034,94.558777 253.901642,101.545311 254.066956,108.525429 
	C254.144547,111.801682 255.389954,114.308357 259.467499,114.016510 
	C263.216583,113.748154 264.071808,111.508400 264.020050,108.267448 
	C263.937714,103.113960 263.985352,97.958107 264.004028,92.803360 
	C264.024841,87.062538 266.598114,84.097595 271.600555,84.002800 
	C276.958466,83.901260 278.872650,86.074104 278.980164,92.649780 
	C279.067139,97.969490 279.045807,103.292191 278.987152,108.612617 
	C278.953186,111.693230 279.933990,113.885567 283.377502,113.951912 
	C286.760620,114.017090 288.022217,112.030380 288.006195,108.858658 
	C287.969238,101.542343 288.276001,94.211487 287.908539,86.913467 
	C287.584930,80.486404 284.140869,73.821449 275.336060,75.061882 
	C271.559723,75.593895 267.878662,76.802315 264.942902,77.512611 
	C262.043884,76.952492 259.388184,75.677757 257.117432,76.171906 
	C253.326813,76.996788 253.991257,80.652710 254.001007,83.610733 
	C254.004303,84.608429 254.001511,85.606148 254.001480,87.574875 
M410.508148,22.006405 
	C404.934448,16.627251 394.471710,16.380833 389.016937,21.481913 
	C383.567444,26.578016 384.175751,36.799755 388.631226,42.193184 
	C394.020355,48.716827 404.609314,47.116859 410.514038,42.853710 
	C415.261902,39.425819 417.311035,29.806263 410.508148,22.006405 
M357.465820,14.975964 
	C353.247314,10.946529 348.172485,10.824789 342.974396,12.098582 
	C338.037659,13.308332 334.275482,17.858067 334.016113,22.548273 
	C333.668793,28.827730 333.926910,34.983051 340.667847,38.162075 
	C347.916840,41.580685 355.035065,39.688400 359.891815,33.589397 
	C363.452148,29.118425 362.598206,21.091177 357.465820,14.975964 
M311.773041,105.150627 
	C309.551453,106.326492 308.131653,105.641281 308.082367,103.164207 
	C307.964325,97.232445 308.044189,91.296753 308.044189,85.657791 
	C311.385895,84.272148 315.792419,86.401703 316.065826,80.872719 
	C316.367523,74.771141 311.450989,76.661232 309.051880,74.998383 
	C307.417572,72.024460 305.523102,67.791573 303.040070,67.412354 
	C297.745514,66.603737 298.180481,71.848740 297.097198,75.033440 
	C294.729218,76.422668 291.208221,78.501236 291.422028,80.071167 
	C291.745209,82.444313 294.671356,84.462952 296.491364,86.632248 
	C296.994293,86.347305 297.497192,86.062363 298.000122,85.777420 
	C298.000122,91.410507 297.990417,97.043610 298.002289,102.676666 
	C298.021851,111.979340 302.500946,115.813171 311.524750,113.794319 
	C313.204193,113.418579 315.154327,111.580185 315.814728,109.946075 
	C316.813263,107.475235 315.497894,105.484299 311.773041,105.150627 
M409.049835,84.973801 
	C412.088776,90.687592 417.208527,91.602791 422.973175,90.986290 
	C429.870026,90.248695 434.260345,85.035088 433.997894,77.931030 
	C433.728302,70.632187 428.540375,65.301552 421.960754,64.948990 
	C410.957855,64.359390 405.120911,72.925476 409.049835,84.973801 
M154.999969,97.587173 
	C155.231979,94.648972 154.856979,91.485565 155.843216,88.827179 
	C157.204254,85.158585 159.782913,82.656357 164.581497,83.826096 
	C167.144150,84.450798 170.543030,84.655754 170.952118,80.489098 
	C171.316345,76.779755 169.523926,74.596428 165.746780,75.079590 
	C162.177979,75.536095 158.688477,76.612518 155.111984,77.428154 
	C153.404678,76.918816 151.073746,75.500740 148.934357,75.746956 
	C145.317734,76.163208 146.009476,79.515442 146.005829,82.107704 
	C145.992950,91.241920 146.039307,100.376404 145.981384,109.510269 
	C145.964523,112.169571 146.429398,114.062416 149.722824,114.023499 
	C152.862213,113.986389 154.894638,112.897766 154.965897,109.515633 
	C155.042847,105.863480 154.993958,102.208672 154.999969,97.587173 
M370.794769,27.075821 
	C367.246948,29.995968 366.997925,33.704887 369.220367,37.241665 
	C371.251862,40.474648 374.435150,40.383522 377.998108,39.170494 
	C382.301025,37.705547 382.159027,34.430367 381.927460,31.171776 
	C381.593231,26.468441 377.917023,25.019480 370.794769,27.075821 
M414.423523,94.880615 
	C411.137665,92.808983 407.738800,93.914970 406.296021,96.605072 
	C405.045471,98.936737 405.081635,102.712166 406.095825,105.225266 
	C406.715088,106.759773 410.207977,107.640373 412.501465,107.859573 
	C415.098419,108.107780 417.202057,107.135063 418.214020,103.822090 
	C419.450867,99.772789 418.190918,97.284576 414.423523,94.880615 
M402.012634,54.835056 
	C402.007904,57.962841 401.383331,61.829334 405.999237,61.804367 
	C407.988770,61.793602 411.263611,60.097710 411.629547,58.599468 
	C412.107849,56.641090 410.909821,53.392487 409.304291,52.005310 
	C406.669952,49.729252 403.752472,50.638351 402.012634,54.835056 
z"/>
<path fill="#244C89" opacity="1.000000" stroke="none" 
	d="
M1.000000,87.466858 
	C3.122823,84.711014 5.438375,82.569908 7.330598,80.103973 
	C12.092138,73.898758 22.049000,73.952103 26.938362,76.032784 
	C34.473602,79.239433 38.266697,85.766518 38.058926,93.705872 
	C37.973282,96.978455 36.701077,98.156799 33.547798,98.029579 
	C29.893373,97.882141 26.228319,97.998825 22.567879,97.999702 
	C19.082516,98.000542 15.597154,97.999893 12.077102,97.999893 
	C13.013396,104.025291 18.298988,107.292130 24.399546,105.720955 
	C26.142168,105.272141 27.774832,103.998001 29.487814,103.936615 
	C31.482246,103.865143 33.509499,104.709572 35.522507,105.156540 
	C34.882153,107.150970 34.851707,109.838280 33.501751,111.026573 
	C25.188091,118.344688 9.923207,115.549820 3.969978,105.920639 
	C3.294341,104.827812 2.463223,103.831116 1.352101,102.894920 
	C1.000000,97.977905 1.000000,92.955818 1.000000,87.466858 
M26.603605,89.905022 
	C26.735870,89.004601 27.299891,87.829002 26.929993,87.248634 
	C24.612288,83.612183 20.756113,83.356293 17.246571,84.194427 
	C14.979187,84.735924 13.113531,86.959572 11.067847,88.429382 
	C11.355145,88.944710 11.642444,89.460030 11.929743,89.975357 
	C16.542870,89.975357 21.155994,89.975357 26.603605,89.905022 
z"/>
<path fill="#E31C3A" opacity="1.000000" stroke="none" 
	d="
M380.539368,1.000000 
	C381.462402,1.964520 381.727844,3.109305 382.418976,3.864483 
	C387.128265,9.009948 387.420410,16.176687 382.525848,19.837742 
	C377.257996,23.778004 370.622009,24.140312 366.810089,19.283981 
	C362.315063,13.557447 363.241791,6.454358 369.013275,2.342911 
	C369.271027,2.159295 369.423950,1.828571 369.312866,1.283187 
	C372.692902,1.000000 376.385834,1.000000 380.539368,1.000000 
z"/>
<path fill="#008CC3" opacity="1.000000" stroke="none" 
	d="
M436.000000,58.539360 
	C432.837433,59.999950 429.719025,61.185558 426.500610,61.950569 
	C422.878662,62.811501 420.074127,61.081837 419.425415,57.620106 
	C418.844513,54.520367 418.368683,50.553169 419.792908,48.097542 
	C423.003571,42.561577 429.525482,42.726982 435.724854,47.327332 
	C436.000000,50.692909 436.000000,54.385818 436.000000,58.539360 
z"/>
<path fill="#008CC3" opacity="1.000000" stroke="none" 
	d="
M379.454102,140.000000 
	C378.688263,139.074615 378.484863,138.094040 378.046234,137.233322 
	C376.051331,133.318893 376.475922,129.922897 380.245087,127.385246 
	C383.292206,125.333733 386.803864,125.115898 389.155273,127.925758 
	C391.662598,130.921936 392.356659,134.700623 389.356018,138.177444 
	C389.033234,138.551422 388.748840,138.958511 388.723328,139.675110 
	C385.969391,140.000000 382.938812,140.000000 379.454102,140.000000 
z"/>
<path fill="#244C89" opacity="1.000000" stroke="none" 
	d="
M396.901337,114.743416 
	C395.302032,115.622719 393.386383,116.187210 392.151001,117.428642 
	C374.085785,135.582642 337.148041,133.864914 323.102661,106.951324 
	C313.621887,88.784294 316.134216,66.162247 335.138947,50.303413 
	C334.999023,49.998047 334.920898,49.998005 334.920898,49.998005 
	C338.797546,48.410976 342.576538,46.499447 346.569153,45.297642 
	C358.644348,41.662926 370.724365,41.269684 382.268555,47.138367 
	C394.408386,53.309875 401.194855,63.657478 403.947113,76.767334 
	C406.544006,89.137276 404.604279,100.707832 397.437592,111.280037 
	C396.898865,112.074783 396.731659,113.121361 396.596497,114.425003 
	C396.801208,114.799141 396.901337,114.743423 396.901337,114.743416 
M336.141205,89.721619 
	C334.346130,94.315277 332.428284,98.867744 330.861298,103.537933 
	C330.554077,104.453568 331.328308,106.505035 332.097260,106.817268 
	C333.106079,107.226906 335.250702,106.857040 335.768463,106.071815 
	C337.198212,103.903511 337.804688,101.198654 339.196533,98.996605 
	C340.008270,97.712357 341.666382,96.202499 343.005341,96.141235 
	C349.461639,95.845810 355.938934,96.008247 362.159424,96.008247 
	C363.711304,99.228058 364.759918,102.260399 366.555054,104.755661 
	C367.412628,105.947685 369.687164,106.120316 371.319885,106.754677 
	C371.638184,105.360573 372.089447,103.978905 372.221466,102.567368 
	C372.292938,101.803177 371.896057,100.956261 371.580963,100.200653 
	C366.513031,88.048508 361.510498,75.867470 356.249115,63.799366 
	C355.440887,61.945419 353.418732,60.620705 351.957977,59.051220 
	C350.368530,60.544842 348.135803,61.745682 347.299896,63.582279 
	C343.483093,71.968025 340.058350,80.532211 336.141205,89.721619 
M378.000000,86.498940 
	C378.001038,91.475929 377.663818,96.487785 378.171326,101.412590 
	C378.371490,103.354843 380.205780,106.382332 381.732178,106.680161 
	C385.190613,107.354980 385.913452,104.086716 385.937683,101.399437 
	C386.048309,89.123909 386.050201,76.846237 385.935455,64.570793 
	C385.910339,61.885136 385.163483,58.617687 381.704926,59.318867 
	C380.177094,59.628605 378.287262,62.693573 378.170166,64.606201 
	C377.745148,71.548027 378.000977,78.531540 378.000000,86.498940 
z"/>
<path fill="#244C89" opacity="1.000000" stroke="none" 
	d="
M199.402252,111.352234 
	C187.610611,119.340210 175.050415,113.599091 171.799957,99.510544 
	C169.192139,88.207413 176.307266,77.261627 183.889465,75.509888 
	C189.024445,74.323532 194.325989,74.937836 200.127426,76.943268 
	C202.264999,76.321236 204.657166,74.822090 206.462112,75.346008 
	C207.992142,75.790131 209.789124,78.545319 209.840240,80.324593 
	C210.150833,91.134392 210.114639,101.959335 209.954681,112.775688 
	C209.841949,120.398308 203.694839,127.331604 196.147949,127.834801 
	C191.258728,128.160782 186.287994,127.287079 181.356308,126.917480 
	C180.881317,126.881897 180.423279,126.611320 179.958817,126.445778 
	C176.273270,125.132133 174.932297,122.111656 176.431015,118.995506 
	C177.038040,117.733383 180.607849,117.417183 182.798065,117.500053 
	C186.769135,117.650291 190.742691,118.953392 194.665619,118.761543 
	C197.647324,118.615738 200.326035,116.700577 200.281647,112.325005 
	C200.581848,111.420494 200.624588,111.029488 200.667328,110.638474 
	C200.245636,110.876404 199.823944,111.114319 199.402252,111.352234 
M192.908646,105.905106 
	C194.193344,105.177132 195.632568,104.630241 196.735367,103.689125 
	C200.979370,100.067276 202.260727,94.618202 199.758255,89.766373 
	C197.685135,85.747017 194.466507,83.414574 189.529556,83.708847 
	C183.923553,84.042999 180.345978,89.930229 180.352066,95.437546 
	C180.359406,102.078728 185.042099,105.930428 192.908646,105.905106 
z"/>
<path fill="#244C89" opacity="1.000000" stroke="none" 
	d="
M48.810459,113.895088 
	C44.559040,114.233307 42.956474,112.368752 42.982590,108.614845 
	C43.047504,99.285210 42.885677,89.951927 43.114075,80.627441 
	C43.153854,79.003365 44.280636,76.664391 45.582500,76.016739 
	C46.944523,75.339172 49.750595,75.660194 50.806870,76.690979 
	C52.679947,78.518860 53.730957,78.212318 55.647198,76.972191 
	C62.111320,72.788773 69.586189,74.264015 74.131981,80.033165 
	C77.558205,78.327858 80.735413,75.740822 84.230927,75.196007 
	C94.556152,73.586708 99.541824,78.166481 99.948685,89.010078 
	C100.192139,95.498726 99.944603,102.004448 100.017159,108.501389 
	C100.054626,111.856911 98.903198,113.850342 95.216370,114.025078 
	C91.364586,114.207657 90.200821,111.785805 90.082306,108.755333 
	C89.867592,103.265404 90.014603,97.761551 89.999748,92.263542 
	C89.981148,85.381386 89.086464,84.091515 84.305107,84.007744 
	C79.011887,83.915001 76.092621,86.951996 76.015205,92.781479 
	C75.948845,97.778877 75.915985,102.779686 76.026756,107.775482 
	C76.107269,111.406372 75.321571,113.949844 70.937607,114.031174 
	C66.362839,114.116051 67.098076,110.987190 66.990875,108.203468 
	C66.749084,101.925148 66.378769,95.650818 66.213913,89.370850 
	C66.116623,85.665077 64.043503,83.665657 60.720844,83.612175 
	C57.146702,83.554642 53.437683,84.713226 53.009445,88.985199 
	C52.350906,95.554611 52.477776,102.201065 51.882725,108.779671 
	C51.724236,110.531868 50.149544,112.155952 48.810459,113.895088 
z"/>
<path fill="#244C89" opacity="1.000000" stroke="none" 
	d="
M226.749252,75.198509 
	C238.758987,74.759796 246.454651,79.481911 249.284225,88.665459 
	C251.415009,95.581047 249.732635,97.983139 242.721451,97.997070 
	C236.304688,98.009819 229.887894,97.999771 223.294205,97.999771 
	C225.511795,105.198814 230.904678,107.816078 237.272354,105.277885 
	C238.498779,104.789032 239.657104,103.737404 240.870850,103.698715 
	C242.790573,103.637527 244.730576,104.212860 246.662003,104.518829 
	C246.148712,106.779694 246.410370,110.086151 244.997513,111.133324 
	C235.141525,118.438248 216.455734,116.290680 213.316208,99.955711 
	C211.317932,89.558624 214.006805,79.790298 226.749252,75.198509 
M237.948593,86.469017 
	C231.076065,81.693924 224.882324,83.069740 223.621994,89.655197 
	C228.797760,89.655197 233.973541,89.655197 239.510193,89.655197 
	C239.037155,88.493904 238.735947,87.754425 237.948593,86.469017 
z"/>
<path fill="#244C89" opacity="1.000000" stroke="none" 
	d="
M134.698669,79.216515 
	C136.977066,83.833557 139.497696,88.049187 140.830917,92.611794 
	C141.854294,96.113991 139.458176,98.060745 135.662567,98.017761 
	C128.688019,97.938766 121.711922,97.995232 114.700470,97.995232 
	C115.516747,104.363220 122.240906,107.720055 128.466949,105.171104 
	C130.289398,104.424988 132.133591,103.219162 133.976608,103.202576 
	C135.386017,103.189888 137.316559,104.414261 138.063889,105.659416 
	C138.648865,106.634064 138.286285,108.919579 137.470139,109.877625 
	C129.756027,118.932884 110.530449,115.409111 105.936058,104.423790 
	C101.919044,94.818977 104.420174,86.952393 110.923141,79.445580 
	C115.315536,74.375145 127.333313,72.665291 134.698669,79.216515 
M118.151245,84.458504 
	C116.708351,85.940231 115.265465,87.421959 113.201073,89.541916 
	C119.978546,89.541916 125.321854,89.541916 131.052689,89.541916 
	C128.196320,83.883659 123.968910,82.936119 118.151245,84.458504 
z"/>
<path fill="#244C89" opacity="1.000000" stroke="none" 
	d="
M254.001480,87.089363 
	C254.001511,85.606148 254.004303,84.608429 254.001007,83.610733 
	C253.991257,80.652710 253.326813,76.996788 257.117432,76.171906 
	C259.388184,75.677757 262.043884,76.952492 264.942902,77.512611 
	C267.878662,76.802315 271.559723,75.593895 275.336060,75.061882 
	C284.140869,73.821449 287.584930,80.486404 287.908539,86.913467 
	C288.276001,94.211487 287.969238,101.542343 288.006195,108.858658 
	C288.022217,112.030380 286.760620,114.017090 283.377502,113.951912 
	C279.933990,113.885567 278.953186,111.693230 278.987152,108.612617 
	C279.045807,103.292191 279.067139,97.969490 278.980164,92.649780 
	C278.872650,86.074104 276.958466,83.901260 271.600555,84.002800 
	C266.598114,84.097595 264.024841,87.062538 264.004028,92.803360 
	C263.985352,97.958107 263.937714,103.113960 264.020050,108.267448 
	C264.071808,111.508400 263.216583,113.748154 259.467499,114.016510 
	C255.389954,114.308357 254.144547,111.801682 254.066956,108.525429 
	C253.901642,101.545311 254.007034,94.558777 254.001480,87.089363 
z"/>
<path fill="#08A84B" opacity="1.000000" stroke="none" 
	d="
M410.771515,22.275471 
	C417.311035,29.806263 415.261902,39.425819 410.514038,42.853710 
	C404.609314,47.116859 394.020355,48.716827 388.631226,42.193184 
	C384.175751,36.799755 383.567444,26.578016 389.016937,21.481913 
	C394.471710,16.380833 404.934448,16.627251 410.771515,22.275471 
z"/>
<path fill="#F1662F" opacity="1.000000" stroke="none" 
	d="
M357.736664,15.243476 
	C362.598206,21.091177 363.452148,29.118425 359.891815,33.589397 
	C355.035065,39.688400 347.916840,41.580685 340.667847,38.162075 
	C333.926910,34.983051 333.668793,28.827730 334.016113,22.548273 
	C334.275482,17.858067 338.037659,13.308332 342.974396,12.098582 
	C348.172485,10.824789 353.247314,10.946529 357.736664,15.243476 
z"/>
<path fill="#244C89" opacity="1.000000" stroke="none" 
	d="
M312.168823,105.120041 
	C315.497894,105.484299 316.813263,107.475235 315.814728,109.946075 
	C315.154327,111.580185 313.204193,113.418579 311.524750,113.794319 
	C302.500946,115.813171 298.021851,111.979340 298.002289,102.676666 
	C297.990417,97.043610 298.000122,91.410507 298.000122,85.777420 
	C297.497192,86.062363 296.994293,86.347305 296.491364,86.632248 
	C294.671356,84.462952 291.745209,82.444313 291.422028,80.071167 
	C291.208221,78.501236 294.729218,76.422668 297.097198,75.033440 
	C298.180481,71.848740 297.745514,66.603737 303.040070,67.412354 
	C305.523102,67.791573 307.417572,72.024460 309.051880,74.998383 
	C311.450989,76.661232 316.367523,74.771141 316.065826,80.872719 
	C315.792419,86.401703 311.385895,84.272148 308.044189,85.657791 
	C308.044189,91.296753 307.964325,97.232445 308.082367,103.164207 
	C308.131653,105.641281 309.551453,106.326492 312.168823,105.120041 
z"/>
<path fill="#80B942" opacity="1.000000" stroke="none" 
	d="
M409.009491,84.565460 
	C405.120911,72.925476 410.957855,64.359390 421.960754,64.948990 
	C428.540375,65.301552 433.728302,70.632187 433.997894,77.931030 
	C434.260345,85.035088 429.870026,90.248695 422.973175,90.986290 
	C417.208527,91.602791 412.088776,90.687592 409.009491,84.565460 
z"/>
<path fill="#244C89" opacity="1.000000" stroke="none" 
	d="
M154.999969,98.071098 
	C154.993958,102.208672 155.042847,105.863480 154.965897,109.515633 
	C154.894638,112.897766 152.862213,113.986389 149.722824,114.023499 
	C146.429398,114.062416 145.964523,112.169571 145.981384,109.510269 
	C146.039307,100.376404 145.992950,91.241920 146.005829,82.107704 
	C146.009476,79.515442 145.317734,76.163208 148.934357,75.746956 
	C151.073746,75.500740 153.404678,76.918816 155.111984,77.428154 
	C158.688477,76.612518 162.177979,75.536095 165.746780,75.079590 
	C169.523926,74.596428 171.316345,76.779755 170.952118,80.489098 
	C170.543030,84.655754 167.144150,84.450798 164.581497,83.826096 
	C159.782913,82.656357 157.204254,85.158585 155.843216,88.827179 
	C154.856979,91.485565 155.231979,94.648972 154.999969,98.071098 
z"/>
<path fill="#5A5B96" opacity="1.000000" stroke="none" 
	d="
M396.589539,115.043961 
	C396.901337,114.743423 396.801208,114.799141 396.796936,114.829193 
	C400.593262,111.500931 404.895355,109.583397 409.765991,112.008224 
	C414.453247,114.341736 416.461182,118.332085 416.090851,123.784645 
	C415.787292,128.254257 413.465454,130.551788 409.670868,132.138596 
	C405.303772,133.964798 400.682098,133.705902 397.770660,130.496902 
	C395.570831,128.072220 395.063446,123.870003 394.465973,120.346458 
	C394.208008,118.825294 395.622803,117.020470 396.589539,115.043961 
z"/>
<path fill="#F5C128" opacity="1.000000" stroke="none" 
	d="
M334.999023,49.958977 
	C333.766815,50.276634 332.551849,50.849121 331.299103,50.949482 
	C327.592651,51.246429 323.618500,51.164417 322.453217,46.804867 
	C321.456757,43.077000 320.633606,38.232201 324.912384,36.298897 
	C327.674927,35.050678 332.244690,35.154118 334.781647,36.682175 
	C338.486420,38.913620 339.025024,43.340107 336.813141,47.485397 
	C336.439789,48.185062 335.735748,48.708248 335.052673,49.655487 
	C334.920898,49.998005 334.999023,49.998047 334.999023,49.958977 
z"/>
<path fill="#5A5B96" opacity="1.000000" stroke="none" 
	d="
M371.186707,26.953255 
	C377.917023,25.019480 381.593231,26.468441 381.927460,31.171776 
	C382.159027,34.430367 382.301025,37.705547 377.998108,39.170494 
	C374.435150,40.383522 371.251862,40.474648 369.220367,37.241665 
	C366.997925,33.704887 367.246948,29.995968 371.186707,26.953255 
z"/>
<path fill="#F4C128" opacity="1.000000" stroke="none" 
	d="
M414.813660,94.958878 
	C418.190918,97.284576 419.450867,99.772789 418.214020,103.822090 
	C417.202057,107.135063 415.098419,108.107780 412.501465,107.859573 
	C410.207977,107.640373 406.715088,106.759773 406.095825,105.225266 
	C405.081635,102.712166 405.045471,98.936737 406.296021,96.605072 
	C407.738800,93.914970 411.137665,92.808983 414.813660,94.958878 
z"/>
<path fill="#E31C3A" opacity="1.000000" stroke="none" 
	d="
M402.039734,54.418617 
	C403.752472,50.638351 406.669952,49.729252 409.304291,52.005310 
	C410.909821,53.392487 412.107849,56.641090 411.629547,58.599468 
	C411.263611,60.097710 407.988770,61.793602 405.999237,61.804367 
	C401.383331,61.829334 402.007904,57.962841 402.039734,54.418617 
z"/>
<path fill="#000000" opacity="1.000000" stroke="none" 
	d="
M26.186363,89.940186 
	C21.155994,89.975357 16.542870,89.975357 11.929743,89.975357 
	C11.642444,89.460030 11.355145,88.944710 11.067847,88.429382 
	C13.113531,86.959572 14.979187,84.735924 17.246571,84.194427 
	C20.756113,83.356293 24.612288,83.612183 26.929993,87.248634 
	C27.299891,87.829002 26.735870,89.004601 26.186363,89.940186 
z"/>
<path fill="#000000" opacity="1.000000" stroke="none" 
	d="
M336.316956,89.376945 
	C340.058350,80.532211 343.483093,71.968025 347.299896,63.582279 
	C348.135803,61.745682 350.368530,60.544842 351.957977,59.051224 
	C353.418732,60.620705 355.440887,61.945419 356.249115,63.799366 
	C361.510498,75.867470 366.513031,88.048508 371.580963,100.200653 
	C371.896057,100.956261 372.292938,101.803177 372.221466,102.567368 
	C372.089447,103.978905 371.638184,105.360573 371.319885,106.754677 
	C369.687164,106.120316 367.412628,105.947685 366.555054,104.755661 
	C364.759918,102.260399 363.711304,99.228058 362.159424,96.008247 
	C355.938934,96.008247 349.461639,95.845810 343.005341,96.141235 
	C341.666382,96.202499 340.008270,97.712357 339.196533,98.996605 
	C337.804688,101.198654 337.198212,103.903511 335.768463,106.071815 
	C335.250702,106.857040 333.106079,107.226906 332.097260,106.817268 
	C331.328308,106.505035 330.554077,104.453568 330.861298,103.537933 
	C332.428284,98.867744 334.346130,94.315277 336.316956,89.376945 
M347.041077,88.993256 
	C350.914642,88.993256 354.788177,88.993256 359.375275,88.993256 
	C356.712952,83.011650 354.500763,78.041374 352.288574,73.071091 
	C351.636841,73.052521 350.985107,73.033951 350.333374,73.015381 
	C348.317444,77.957504 346.287720,82.894325 344.370758,87.874550 
	C344.326172,87.990494 345.551270,88.595139 347.041077,88.993256 
z"/>
<path fill="#000000" opacity="1.000000" stroke="none" 
	d="
M378.000000,85.999130 
	C378.000977,78.531540 377.745148,71.548027 378.170166,64.606201 
	C378.287262,62.693573 380.177094,59.628605 381.704926,59.318867 
	C385.163483,58.617687 385.910339,61.885136 385.935455,64.570793 
	C386.050201,76.846237 386.048309,89.123909 385.937683,101.399437 
	C385.913452,104.086716 385.190613,107.354980 381.732178,106.680161 
	C380.205780,106.382332 378.371490,103.354843 378.171326,101.412590 
	C377.663818,96.487785 378.001038,91.475929 378.000000,85.999130 
z"/>
<path fill="#000000" opacity="1.000000" stroke="none" 
	d="
M192.507416,105.938812 
	C185.042099,105.930428 180.359406,102.078728 180.352066,95.437546 
	C180.345978,89.930229 183.923553,84.042999 189.529556,83.708847 
	C194.466507,83.414574 197.685135,85.747017 199.758255,89.766373 
	C202.260727,94.618202 200.979370,100.067276 196.735367,103.689125 
	C195.632568,104.630241 194.193344,105.177132 192.507416,105.938812 
z"/>
<path fill="#000000" opacity="1.000000" stroke="none" 
	d="
M199.562897,111.541374 
	C199.823944,111.114319 200.245636,110.876404 200.667328,110.638474 
	C200.624588,111.029488 200.581848,111.420494 200.312637,111.940430 
	C200.086166,112.069359 199.723541,111.730507 199.562897,111.541374 
z"/>
<path fill="#000000" opacity="1.000000" stroke="none" 
	d="
M238.191650,86.741974 
	C238.735947,87.754425 239.037155,88.493904 239.510193,89.655197 
	C233.973541,89.655197 228.797760,89.655197 223.618652,89.654037 
	C224.882324,83.069740 231.076065,81.693924 238.191650,86.741974 
z"/>
<path fill="#000000" opacity="1.000000" stroke="none" 
	d="
M118.496071,84.297623 
	C123.968910,82.936119 128.196320,83.883659 131.052689,89.541916 
	C125.321854,89.541916 119.978546,89.541916 113.201073,89.541916 
	C115.265465,87.421959 116.708351,85.940231 118.496071,84.297623 
z"/>
<path fill="#244C89" opacity="1.000000" stroke="none" 
	d="
M346.612610,88.982544 
	C345.551270,88.595139 344.326172,87.990494 344.370758,87.874550 
	C346.287720,82.894325 348.317444,77.957504 350.333374,73.015381 
	C350.985107,73.033951 351.636841,73.052521 352.288574,73.071091 
	C354.500763,78.041374 356.712952,83.011650 359.375275,88.993256 
	C354.788177,88.993256 350.914642,88.993256 346.612610,88.982544 
z"/>
</svg>